# xmcd CD database file
#
# Track frame offsets:
#	150
#	24803
#	48049
#	70688
#	84248
#	101008
#	128847
#	146526
#	160474
#	175995
#
# Disc length: 2478 seconds
#
# Revision: 0
# Processed by: cddbd v1.5.2PL0 Copyright (c) Steve Scherf et al.
# Submitted via: CDex 1.51
#
DISCID=7609ac0a
DTITLE=Kid Carlos Blues Band - Talkin' bout The Blues
DYEAR=1900
DGENRE=Blues
TTITLE0=01 - Heart Station (Talking About)
TTITLE1=02 - Good News
TTITLE2=03 - Desert Of Love
TTITLE3=04 - Walky Talker
TTITLE4=05 - Dust My Broom
TTITLE5=06 - Sweet Little Angel
TTITLE6=07 - Walking With My Friens
TTITLE7=08 - Happy Blues
TTITLE8=09 - Good Morning Little Schoolgirl
TTITLE9=10 - Relaxing
EXTD=
EXTT0=
EXTT1=
EXTT2=
EXTT3=
EXTT4=
EXTT5=
EXTT6=
EXTT7=
EXTT8=
EXTT9=
PLAYORDER=
